<svg id="Layer_2" data-name="Layer 2" xmlns="http://www.w3.org/2000/svg" viewBox="0 0 21.25 21.25"><defs><style>.cls-1{fill:#1d1d1b;fill-rule:evenodd;}</style></defs><title>insta-2</title><path class="cls-1" d="M8106.8,2559.24a5.43,5.43,0,1,1,5.43,5.43,5.43,5.43,0,0,1-5.43-5.43h0Zm11-10.62h-11.2a5,5,0,0,0-5,5v11.2a5,5,0,0,0,5,5h11.2a5,5,0,0,0,5-5v-11.2a5,5,0,0,0-5-5h0Zm-11.2,1.26h11.2a3.78,3.78,0,0,1,3.77,3.77v11.2a3.77,3.77,0,0,1-3.77,3.77h-11.2a3.78,3.78,0,0,1-3.77-3.77v-11.2a3.78,3.78,0,0,1,3.77-3.77h0Zm12.32,1.58a1.1,1.1,0,1,0,1.1,1.1,1.1,1.1,0,0,0-1.1-1.1h0Zm0.13,7.78a6.85,6.85,0,1,0-6.85,6.85,6.85,6.85,0,0,0,6.85-6.85h0Z" transform="translate(-8101.61 -2548.61)"/></svg>