<svg id="Layer_2" data-name="Layer 2" xmlns="http://www.w3.org/2000/svg" viewBox="0 0 30.45 30.45"><defs><style>.cls-1{fill:none;stroke:#1d1d1b;stroke-miterlimit:10;}.cls-1,.cls-2{fill-rule:evenodd;}.cls-2{fill:#1d1d1b;}</style></defs><title>insta</title><path class="cls-1" d="M8102.42,2544.51H8122a4.93,4.93,0,0,1,4.91,4.91v19.63A4.93,4.93,0,0,1,8122,2574h-19.63a4.93,4.93,0,0,1-4.91-4.91v-19.63a4.93,4.93,0,0,1,4.91-4.91h0Z" transform="translate(-8097 -2544.01)"/><path class="cls-2" d="M8106.8,2559.24a5.43,5.43,0,1,1,5.43,5.43,5.43,5.43,0,0,1-5.43-5.43h0Zm11-10.62h-11.2a5,5,0,0,0-5,5v11.2a5,5,0,0,0,5,5h11.2a5,5,0,0,0,5-5v-11.2a5,5,0,0,0-5-5h0Zm-11.2,1.26h11.2a3.78,3.78,0,0,1,3.77,3.77v11.2a3.77,3.77,0,0,1-3.77,3.77h-11.2a3.78,3.78,0,0,1-3.77-3.77v-11.2a3.78,3.78,0,0,1,3.77-3.77h0Zm12.32,1.58a1.1,1.1,0,1,0,1.1,1.1,1.1,1.1,0,0,0-1.1-1.1h0Zm0.13,7.78a6.85,6.85,0,1,0-6.85,6.85,6.85,6.85,0,0,0,6.85-6.85h0Z" transform="translate(-8097 -2544.01)"/></svg>