<svg id="Layer_2" data-name="Layer 2" xmlns="http://www.w3.org/2000/svg" viewBox="0 0 19.23 11.26"><defs><style>.cls-1{fill:#1d1d1b;}</style></defs><title>vk-2</title><path class="cls-1" d="M8042.29,2559.54s2.53-3.58,2.79-4.75a0.48,0.48,0,0,0-.54-0.65h-2.2a0.8,0.8,0,0,0-.84.54,19.92,19.92,0,0,1-2.64,4.13,1.44,1.44,0,0,1-1,.67c-0.21,0-.3-0.17-0.3-0.64v-4.08c0-.57-0.07-0.74-0.54-0.74h-3.52a0.39,0.39,0,0,0-.44.37c0,0.54.82,0.66,0.82,2.11v3c0,0.6,0,.84-0.32.84-0.76,0-2.55-2.6-3.56-5.56a0.88,0.88,0,0,0-1-.77h-2.2a0.52,0.52,0,0,0-.55.54c0,0.59.69,3.31,3.39,6.95,1.81,2.45,4.2,3.78,6.34,3.78,1.31,0,1.63-.22,1.63-0.77v-1.88c0-.47.18-0.67,0.45-0.67s0.84,0.1,2.08,1.33c1.48,1.41,1.58,2,2.38,2h2.47a0.46,0.46,0,0,0,.49-0.54c0-.55-0.72-1.54-1.83-2.72-0.45-.6-1.19-1.26-1.43-1.56s-0.23-.55,0-0.92h0Z" transform="translate(-8026.31 -2554.02)"/></svg>